[IMG]http://www.shotpix.com/images/34623554110575087732.png[/IMG]

General
Complete name                            : David Guetta ft. Sia - Titanium [Music Video] 1080p [Sbyky].mp4
Format                                   : MPEG-4
Format profile                           : Base Media / Version 2
Codec ID                                 : mp42
File size                                : 97.2 MiB
Duration                                 : 4mn 5s
Overall bit rate mode                    : Variable
Overall bit rate                         : 3 325 Kbps
Encoded date                             : UTC 2011-12-19 16:04:52
Tagged date                              : UTC 2011-12-19 16:04:52
gsst                                     : 0
gstd                                     : 245295
gssd                                     : B4A7D00A5HH1359200278490764

Video
ID                                       : 1
Format                                   : AVC
Format/Info                              : Advanced Video Codec
Format profile                           : High@L4.0
Format settings, CABAC                   : Yes
Format settings, ReFrames                : 1 frame
Format settings, GOP                     : M=1, N=25
Codec ID                                 : avc1
Codec ID/Info                            : Advanced Video Coding
Duration                                 : 4mn 5s
Bit rate                                 : 3 171 Kbps
Maximum bit rate                         : 9 403 Kbps
Width                                    : 1 920 pixels
Height                                   : 1 080 pixels
Display aspect ratio                     : 16:9
Frame rate mode                          : Constant
Frame rate                               : 25.000 fps
Color space                              : YUV
Chroma subsampling                       : 4:2:0
Bit depth                                : 8 bits
Scan type                                : Progressive
Bits/(Pixel*Frame)                       : 0.061
Stream size                              : 92.7 MiB (95%)
Tagged date                              : UTC 2011-12-19 16:04:52

Audio
ID                                       : 2
Format                                   : AAC
Format/Info                              : Advanced Audio Codec
Format profile                           : LC
Codec ID                                 : 40
Duration                                 : 4mn 5s
Bit rate mode                            : Variable
Bit rate                                 : 152 Kbps
Maximum bit rate                         : 177 Kbps
Channel(s)                               : 2 channels
Channel positions                        : Front: L R
Sampling rate                            : 44.1 KHz
Compression mode                         : Lossy
Stream size                              : 4.44 MiB (5%)
Title                                    : IsoMedia File Produced by Google, 5-11-2011
Encoded date                             : UTC 2011-12-19 16:04:52
Tagged date                              : UTC 2011-12-19 16:04:52

Shared By Sbyky
[IMG]http://www.shotpix.com/images/93673952718153918459.gif[/IMG]
[IMG]http://www.shotpix.com/images/30389343628541615007.gif[/IMG]